#Comment line ignore any data following # character 
#Hierarchical Translation and Rotation (.htr) file 
[Header]	
#Header keywords are followed by a single value 
FileType HTR		#Single word string
DataType HTRS		#Translation followed by rotation and scale data
FileVersion 1		#integer
NumSegments 84		#integer
NumFrames 2		#integer
DataFrameRate 30		#integer, data frame rate in this file
EulerRotationOrder ZYX
CalibrationUnits mm
RotationUnits Degrees
GlobalAxisofGravity Y
BoneLengthAxis Y
ScaleFactor 1.00
[SegmentNames&Hierarchy]
#CHILD	PARENT
MASTER GLOBAL
root MASTER
chest root
L_mid_tent01 root
R_mid_tent01 root
spine01 root
Bip01_Neck chest
L_humerus chest
R_humerus chest
weapon_bone chest
Bip01_Head Bip01_Neck
eye_left_bone Bip01_Head
eye_right_bone Bip01_Head
L_forearm L_humerus
L_front_hand L_forearm
L_weapon_bone L_forearm
L_front_hand01_01 L_front_hand
L_front_hand02_01 L_front_hand
L_front_hand03_01 L_front_hand
L_front_hand01_02 L_front_hand01_01
L_front_hand02_02 L_front_hand02_01
L_front_hand03_02 L_front_hand03_01
R_forearm R_humerus
R_front_hand R_forearm
R_weapon_bone R_forearm
R_front_hand01_01 R_front_hand
R_front_hand02_01 R_front_hand
R_front_hand03_01 R_front_hand
R_front_hand01_02 R_front_hand01_01
R_front_hand02_02 R_front_hand02_01
R_front_hand03_02 R_front_hand03_01
null_rope01_connect L_mid_tent01
Rope1_Seg01 null_rope01_connect
Rope1_Seg02 Rope1_Seg01
Rope1_Seg03 Rope1_Seg02
Rope1_Seg04 Rope1_Seg03
Rope1_Seg05 Rope1_Seg04
Rope1_Seg06 Rope1_Seg05
Rope1_Seg07 Rope1_Seg06
Rope1_Seg09 Rope1_Seg07
L_mid_hand01 Rope1_Seg09
L_mid_hand02 Rope1_Seg09
L_mid_hand03 Rope1_Seg09
null_rope02_connect R_mid_tent01
Rope2_Seg01 null_rope02_connect
Rope2_Seg02 Rope2_Seg01
Rope2_Seg03 Rope2_Seg02
Rope2_Seg04 Rope2_Seg03
Rope2_Seg05 Rope2_Seg04
Rope2_Seg06 Rope2_Seg05
Rope2_Seg07 Rope2_Seg06
Rope2_Seg09 Rope2_Seg07
R_mid_hand01 Rope2_Seg09
R_mid_hand02 Rope2_Seg09
R_mid_hand03 Rope2_Seg09
spine02 spine01
spine03 spine02
pelvis spine03
null_rope03_connect pelvis
null_rope04_connect pelvis
Rope3_Seg01 null_rope03_connect
Rope3_Seg02 Rope3_Seg01
Rope3_Seg03 Rope3_Seg02
Rope3_Seg04 Rope3_Seg03
Rope3_Seg05 Rope3_Seg04
Rope3_Seg06 Rope3_Seg05
Rope3_Seg07 Rope3_Seg06
Rope3_Seg08 Rope3_Seg07
Rope3_Seg09 Rope3_Seg08
R_rear_hand01 Rope3_Seg09
R_rear_hand02 Rope3_Seg09
R_rear_hand03 Rope3_Seg09
Rope4_Seg01 null_rope04_connect
Rope4_Seg02 Rope4_Seg01
Rope4_Seg03 Rope4_Seg02
Rope4_Seg04 Rope4_Seg03
Rope4_Seg05 Rope4_Seg04
Rope4_Seg06 Rope4_Seg05
Rope4_Seg07 Rope4_Seg06
Rope4_Seg08 Rope4_Seg07
Rope4_Seg09 Rope4_Seg08
L_rear_hand01 Rope4_Seg09
L_rear_hand02 Rope4_Seg09
L_rear_hand03 Rope4_Seg09
[BasePosition]
#SegmentName Tx, Ty, Tz, Rx, Ry, Rz, BoneLength
MASTER 0.000000 0.000000 0.000000 -90.000000 0.000000 0.000000 10.000000 
root 0.000000 0.000000 0.000000 0.000000 0.000000 0.000000 10.000000 
chest 0.000000 0.000000 0.000000 0.000000 0.000000 0.000000 10.000000 
L_mid_tent01 0.000000 0.000000 0.000000 0.000000 0.000000 0.000000 10.000000 
R_mid_tent01 0.000000 0.000000 0.000000 0.000000 0.000000 0.000000 10.000000 
spine01 0.000000 0.000000 0.000000 0.000000 0.000000 0.000000 10.000000 
Bip01_Neck 0.000000 0.000000 0.000000 0.000000 0.000000 0.000000 10.000000 
L_humerus 0.000000 0.000000 0.000000 0.000000 0.000000 0.000000 10.000000 
R_humerus 0.000000 0.000000 0.000000 0.000000 0.000000 0.000000 10.000000 
weapon_bone 0.000000 0.000000 0.000000 0.000000 0.000000 0.000000 10.000000 
Bip01_Head 0.000000 0.000000 0.000000 0.000000 0.000000 0.000000 10.000000 
eye_left_bone 0.000000 0.000000 0.000000 0.000000 0.000000 0.000000 10.000000 
eye_right_bone 0.000000 0.000000 0.000000 0.000000 0.000000 0.000000 10.000000 
L_forearm 0.000000 0.000000 0.000000 0.000000 0.000000 0.000000 10.000000 
L_front_hand 0.000000 0.000000 0.000000 0.000000 0.000000 0.000000 10.000000 
L_weapon_bone 0.000000 0.000000 0.000000 0.000000 0.000000 0.000000 10.000000 
L_front_hand01_01 0.000000 0.000000 0.000000 0.000000 0.000000 0.000000 10.000000 
L_front_hand02_01 0.000000 0.000000 0.000000 0.000000 0.000000 0.000000 10.000000 
L_front_hand03_01 0.000000 0.000000 0.000000 0.000000 0.000000 0.000000 10.000000 
L_front_hand01_02 0.000000 0.000000 0.000000 0.000000 0.000000 0.000000 10.000000 
L_front_hand02_02 0.000000 0.000000 0.000000 0.000000 0.000000 0.000000 10.000000 
L_front_hand03_02 0.000000 0.000000 0.000000 0.000000 0.000000 0.000000 10.000000 
R_forearm 0.000000 0.000000 0.000000 0.000000 0.000000 0.000000 10.000000 
R_front_hand 0.000000 0.000000 0.000000 0.000000 0.000000 0.000000 10.000000 
R_weapon_bone 0.000000 0.000000 0.000000 0.000000 0.000000 0.000000 10.000000 
R_front_hand01_01 0.000000 0.000000 0.000000 0.000000 0.000000 0.000000 10.000000 
R_front_hand02_01 0.000000 0.000000 0.000000 0.000000 0.000000 0.000000 10.000000 
R_front_hand03_01 0.000000 0.000000 0.000000 0.000000 0.000000 0.000000 10.000000 
R_front_hand01_02 0.000000 0.000000 0.000000 0.000000 0.000000 0.000000 10.000000 
R_front_hand02_02 0.000000 0.000000 0.000000 0.000000 0.000000 0.000000 10.000000 
R_front_hand03_02 0.000000 0.000000 0.000000 0.000000 0.000000 0.000000 10.000000 
null_rope01_connect 0.000000 0.000000 0.000000 0.000000 0.000000 0.000000 10.000000 
Rope1_Seg01 0.000000 0.000000 0.000000 0.000000 0.000000 0.000000 10.000000 
Rope1_Seg02 0.000000 0.000000 0.000000 0.000000 0.000000 0.000000 10.000000 
Rope1_Seg03 0.000000 0.000000 0.000000 0.000000 0.000000 0.000000 10.000000 
Rope1_Seg04 0.000000 0.000000 0.000000 0.000000 0.000000 0.000000 10.000000 
Rope1_Seg05 0.000000 0.000000 0.000000 0.000000 0.000000 0.000000 10.000000 
Rope1_Seg06 0.000000 0.000000 0.000000 0.000000 0.000000 0.000000 10.000000 
Rope1_Seg07 0.000000 0.000000 0.000000 0.000000 0.000000 0.000000 10.000000 
Rope1_Seg09 0.000000 0.000000 0.000000 0.000000 0.000000 0.000000 10.000000 
L_mid_hand01 0.000000 0.000000 0.000000 0.000000 0.000000 0.000000 10.000000 
L_mid_hand02 0.000000 0.000000 0.000000 0.000000 0.000000 0.000000 10.000000 
L_mid_hand03 0.000000 0.000000 0.000000 0.000000 0.000000 0.000000 10.000000 
null_rope02_connect 0.000000 0.000000 0.000000 0.000000 0.000000 0.000000 10.000000 
Rope2_Seg01 0.000000 0.000000 0.000000 0.000000 0.000000 0.000000 10.000000 
Rope2_Seg02 0.000000 0.000000 0.000000 0.000000 0.000000 0.000000 10.000000 
Rope2_Seg03 0.000000 0.000000 0.000000 0.000000 0.000000 0.000000 10.000000 
Rope2_Seg04 0.000000 0.000000 0.000000 0.000000 0.000000 0.000000 10.000000 
Rope2_Seg05 0.000000 0.000000 0.000000 0.000000 0.000000 0.000000 10.000000 
Rope2_Seg06 0.000000 0.000000 0.000000 0.000000 0.000000 0.000000 10.000000 
Rope2_Seg07 0.000000 0.000000 0.000000 0.000000 0.000000 0.000000 10.000000 
Rope2_Seg09 0.000000 0.000000 0.000000 0.000000 0.000000 0.000000 10.000000 
R_mid_hand01 0.000000 0.000000 0.000000 0.000000 0.000000 0.000000 10.000000 
R_mid_hand02 0.000000 0.000000 0.000000 0.000000 0.000000 0.000000 10.000000 
R_mid_hand03 0.000000 0.000000 0.000000 0.000000 0.000000 0.000000 10.000000 
spine02 0.000000 0.000000 0.000000 0.000000 0.000000 0.000000 10.000000 
spine03 0.000000 0.000000 0.000000 0.000000 0.000000 0.000000 10.000000 
pelvis 0.000000 0.000000 0.000000 0.000000 0.000000 0.000000 10.000000 
null_rope03_connect 0.000000 0.000000 0.000000 0.000000 0.000000 0.000000 10.000000 
null_rope04_connect 0.000000 0.000000 0.000000 0.000000 0.000000 0.000000 10.000000 
Rope3_Seg01 0.000000 0.000000 0.000000 0.000000 0.000000 0.000000 10.000000 
Rope3_Seg02 0.000000 0.000000 0.000000 0.000000 0.000000 0.000000 10.000000 
Rope3_Seg03 0.000000 0.000000 0.000000 0.000000 0.000000 0.000000 10.000000 
Rope3_Seg04 0.000000 0.000000 0.000000 0.000000 0.000000 0.000000 10.000000 
Rope3_Seg05 0.000000 0.000000 0.000000 0.000000 0.000000 0.000000 10.000000 
Rope3_Seg06 0.000000 0.000000 0.000000 0.000000 0.000000 0.000000 10.000000 
Rope3_Seg07 0.000000 0.000000 0.000000 0.000000 0.000000 0.000000 10.000000 
Rope3_Seg08 0.000000 0.000000 0.000000 0.000000 0.000000 0.000000 10.000000 
Rope3_Seg09 0.000000 0.000000 0.000000 0.000000 0.000000 0.000000 10.000000 
R_rear_hand01 0.000000 0.000000 0.000000 0.000000 0.000000 0.000000 10.000000 
R_rear_hand02 0.000000 0.000000 0.000000 0.000000 0.000000 0.000000 10.000000 
R_rear_hand03 0.000000 0.000000 0.000000 0.000000 0.000000 0.000000 10.000000 
Rope4_Seg01 0.000000 0.000000 0.000000 0.000000 0.000000 0.000000 10.000000 
Rope4_Seg02 0.000000 0.000000 0.000000 0.000000 0.000000 0.000000 10.000000 
Rope4_Seg03 0.000000 0.000000 0.000000 0.000000 0.000000 0.000000 10.000000 
Rope4_Seg04 0.000000 0.000000 0.000000 0.000000 0.000000 0.000000 10.000000 
Rope4_Seg05 0.000000 0.000000 0.000000 0.000000 0.000000 0.000000 10.000000 
Rope4_Seg06 0.000000 0.000000 0.000000 0.000000 0.000000 0.000000 10.000000 
Rope4_Seg07 0.000000 0.000000 0.000000 0.000000 0.000000 0.000000 10.000000 
Rope4_Seg08 0.000000 0.000000 0.000000 0.000000 0.000000 0.000000 10.000000 
Rope4_Seg09 0.000000 0.000000 0.000000 0.000000 0.000000 0.000000 10.000000 
L_rear_hand01 0.000000 0.000000 0.000000 0.000000 0.000000 0.000000 10.000000 
L_rear_hand02 0.000000 0.000000 0.000000 0.000000 0.000000 0.000000 10.000000 
L_rear_hand03 0.000000 0.000000 0.000000 0.000000 0.000000 0.000000 10.000000 
#Beginning of Data. Separated by tabs
#Fr	Tx	Ty	Tz	Rx	Ry	Rz	SF
[MASTER]
5 0.000000 0.000000 0.000000 0.001660 0.001660 0.001660 0.000000
6 0.000000 0.000000 0.000000 0.001660 0.001660 0.001660 0.000000
[root]
5 -90.148994 -63.230255 1109.610352 -91.830688 -8.086958 -93.042244 1115.060425
6 -95.513382 -62.964008 1149.708740 -91.928108 -8.346948 -91.959404 1155.386230
[chest]
5 -84.512650 -34.090519 0.000000 -4.228096 -0.449691 178.723206 91.129311
6 -84.512650 -34.090519 0.000000 -4.079060 -0.540201 -177.190979 91.129311
[L_mid_tent01]
5 27.553919 22.031708 -251.552704 -8.875003 19.667864 45.538422 254.014511
6 27.552591 22.032471 -251.544205 -6.791158 21.029455 51.843769 254.006027
[R_mid_tent01]
5 23.228794 24.509907 226.238495 -168.417374 -40.989639 26.205799 228.744751
6 23.228794 24.509907 226.238495 -171.107819 -31.259504 34.186764 228.744751
[spine01]
5 -0.361383 -0.195265 0.000000 -0.296574 0.362837 10.902713 0.410763
6 -0.361383 -0.195265 0.000000 -0.256005 0.369090 10.977345 0.410763
[Bip01_Neck]
5 165.484543 71.581718 0.000119 175.896118 1.177290 24.871183 180.302734
6 165.484543 71.581718 0.000119 175.896118 1.177290 24.871183 180.302734
[L_humerus]
5 -13.983130 -135.272980 -120.471481 -88.096436 3.191116 -158.310501 181.680161
6 -13.983130 -135.272980 -120.471481 -86.107330 4.909349 -162.638596 181.680161
[R_humerus]
5 -13.983309 -135.273102 125.287651 100.902260 -2.563366 -163.265594 184.909012
6 -13.983309 -135.273102 125.287651 98.932426 -3.676715 -166.933578 184.909012
[weapon_bone]
5 235.964890 -300.705902 0.000000 0.000000 -89.951546 -128.212341 382.234833
6 235.964890 -300.705902 0.000000 0.000000 -89.951546 -128.212341 382.234833
[Bip01_Head]
5 224.829163 179.801773 -4.824028 2.033896 2.924257 -53.226101 287.923767
6 230.322876 173.301147 0.070113 2.126601 2.741384 -49.491402 288.239349
[eye_left_bone]
5 -24.626970 125.451866 -64.772606 0.000000 -90.000000 -99.840431 143.318359
6 -24.626970 125.451866 -64.772606 0.000000 -90.000000 -99.840431 143.318359
[eye_right_bone]
5 -24.626970 125.451866 64.327362 0.000000 -89.960434 80.159386 143.117676
6 -24.626970 125.451866 64.327362 0.000000 -89.960434 80.159386 143.117676
[L_forearm]
5 322.776093 0.000000 -0.000119 0.000255 0.002333 -77.512787 322.776093
6 322.776093 0.000000 -0.000119 0.000207 0.002338 -79.885612 322.776093
[L_front_hand]
5 241.149185 -0.042021 -3.300071 -177.812531 -0.593913 -66.287865 241.171753
6 241.149185 -0.042021 -3.300071 -177.784546 -0.500638 -68.713470 241.171753
[L_weapon_bone]
5 156.183838 0.000000 0.000000 0.001660 0.001660 0.001660 156.183838
6 156.183838 0.000000 0.000000 0.001660 0.001660 0.001660 156.183838
[L_front_hand01_01]
5 86.095154 20.947098 -0.655860 0.374546 -0.466940 -0.804271 88.609184
6 86.095154 20.947098 -0.655860 0.376303 -0.465340 -1.016512 88.609184
[L_front_hand02_01]
5 86.935165 -11.437475 24.513514 116.901215 0.225858 -0.232225 91.046425
6 86.935165 -11.437475 24.513514 116.901733 0.415313 -0.135916 91.046425
[L_front_hand03_01]
5 86.637497 -14.123976 -20.424902 -118.329071 -1.301276 -1.967317 90.126129
6 86.637497 -14.123976 -20.424902 -118.331291 -1.488989 -1.866205 90.126129
[L_front_hand01_02]
5 71.020905 -0.000179 0.000030 0.001534 0.001777 -8.378850 71.020905
6 71.020905 -0.000179 0.000030 0.001534 0.001777 -8.378848 71.020905
[L_front_hand02_02]
5 71.020927 -0.000119 0.000060 0.001534 0.001777 -8.378850 71.020927
6 71.020927 -0.000119 0.000060 0.001534 0.001777 -8.378848 71.020927
[L_front_hand03_02]
5 71.020905 -0.000060 0.000060 0.001534 0.001777 -8.378850 71.020905
6 71.020905 -0.000060 0.000060 0.001534 0.001777 -8.378848 71.020905
[R_forearm]
5 322.776428 -0.000060 0.000030 0.213027 -0.013933 -86.887680 322.776428
6 322.776428 -0.000060 0.000030 0.213019 -0.014047 -86.826393 322.776428
[R_front_hand]
5 238.847015 -0.006795 2.210259 -1.635990 -0.553038 -97.384453 238.857239
6 238.847015 -0.006795 2.210259 -1.638781 -0.538991 -96.889900 238.857239
[R_weapon_bone]
5 155.664093 0.002503 -0.000030 0.003487 0.001180 -90.988930 155.664078
6 155.664093 0.002503 -0.000030 0.003487 0.001180 -90.988930 155.664078
[R_front_hand01_01]
5 87.624611 14.231146 22.918642 -116.907173 0.849516 0.023323 91.683487
6 87.624611 14.231146 22.918642 -116.908501 0.997340 -0.051608 91.683487
[R_front_hand02_01]
5 89.356956 14.367283 -19.491137 118.349091 -1.643184 2.021901 92.579636
6 89.356956 14.367283 -19.491137 118.351334 -1.788406 1.943580 92.579636
[R_front_hand03_01]
5 87.286232 -22.307278 -0.143439 -0.378831 -0.252716 1.262818 90.091743
6 87.286232 -22.307278 -0.143439 -0.379635 -0.251264 1.428291 90.091743
[R_front_hand01_02]
5 71.020905 0.000060 0.000119 0.001777 0.001534 8.377220 71.020905
6 71.020905 0.000060 0.000119 0.001777 0.001534 8.377220 71.020905
[R_front_hand02_02]
5 71.020844 -0.000030 -0.000119 0.001777 0.001534 8.377220 71.020836
6 71.020844 -0.000030 -0.000119 0.001777 0.001534 8.377220 71.020836
[R_front_hand03_02]
5 71.020905 0.000000 0.000030 0.001777 0.001534 8.377220 71.020905
6 71.020905 0.000000 0.000030 0.001777 0.001534 8.377220 71.020905
[null_rope01_connect]
5 328.732483 0.000000 -0.000238 -147.814590 -65.276268 -161.618576 328.732483
6 328.732483 0.000000 -0.000238 -149.530197 -65.185318 -165.467178 328.732483
[Rope1_Seg01]
5 0.000136 0.000000 0.000000 111.526230 1.738827 179.018021 0.000136
6 0.000131 0.000000 0.000000 116.333916 17.154150 156.783539 0.000131
[Rope1_Seg02]
5 139.999863 -0.000179 0.000000 8.853945 11.916810 -29.538124 139.999863
6 139.999863 -0.000179 0.000000 3.906929 1.861693 -18.230495 139.999863
[Rope1_Seg03]
5 139.999924 0.000060 -0.000060 68.455284 -2.444344 -35.959251 139.999924
6 139.999924 0.000060 -0.000060 18.119682 0.746942 -30.336180 139.999924
[Rope1_Seg04]
5 139.999924 -0.000060 -0.000119 49.175655 -14.148402 -20.408810 139.999924
6 139.999924 -0.000060 -0.000119 32.016682 -7.053663 -23.702971 139.999924
[Rope1_Seg05]
5 139.999832 0.000119 -0.000060 39.133427 -25.603405 -17.201138 139.999832
6 139.999832 0.000119 -0.000060 29.928349 -14.960651 -15.171166 139.999832
[Rope1_Seg06]
5 139.999954 0.000119 -0.000060 5.817355 -12.005501 1.665127 139.999954
6 139.999954 0.000119 -0.000060 18.075096 -19.073917 -6.161679 139.999954
[Rope1_Seg07]
5 139.999985 0.000060 0.000000 1.727877 -5.431385 1.608322 139.999985
6 139.999985 0.000060 0.000000 5.181279 -10.009295 0.059502 139.999985
[Rope1_Seg09]
5 121.602913 0.000119 -0.000089 -81.374306 -1.359767 0.848284 121.602913
6 121.602913 0.000119 -0.000089 -78.282333 -1.360874 0.848284 121.602913
[L_mid_hand01]
5 103.859421 1.038730 8.195221 104.935577 -15.899389 -4.712279 104.187431
6 103.859421 1.038730 8.195221 104.770332 -13.493182 -4.051872 104.187431
[L_mid_hand02]
5 105.572853 -4.139662 -10.864139 -137.707230 15.462328 -15.738738 106.211075
6 105.572853 -4.139662 -10.864139 -137.228271 13.781400 -13.844213 106.211075
[L_mid_hand03]
5 104.641464 17.579376 -3.913581 -18.104021 5.013830 18.868534 106.179977
6 104.641464 17.579376 -3.913581 -18.297733 4.234387 16.492161 106.179977
[null_rope02_connect]
5 328.732849 0.000179 -0.000119 -126.053177 51.420280 -13.712736 328.732849
6 328.732849 0.000179 -0.000119 -132.849304 60.559998 -14.519736 328.732849
[Rope2_Seg01]
5 0.000095 0.000153 0.000008 52.047504 62.861355 166.837387 0.000180
6 0.000095 0.000153 0.000011 3.284363 49.058117 116.587257 0.000180
[Rope2_Seg02]
5 139.999741 -0.000060 -0.000119 -2.622969 31.303448 -2.289967 139.999756
6 139.999741 -0.000060 -0.000119 1.268636 11.826723 0.182801 139.999756
[Rope2_Seg03]
5 140.000107 0.000030 0.000000 -11.257298 33.757088 -8.346513 140.000107
6 140.000107 0.000030 0.000000 -0.077171 17.613256 -0.961179 140.000107
[Rope2_Seg04]
5 139.999802 0.000000 -0.000060 -32.121662 7.234588 29.733969 139.999802
6 139.999802 0.000000 -0.000060 -1.558278 19.548437 -9.385828 139.999802
[Rope2_Seg05]
5 139.999985 -0.000060 0.000119 -6.787909 -6.352470 12.279133 139.999985
6 139.999985 -0.000060 0.000119 -12.154853 19.828753 11.684392 139.999985
[Rope2_Seg06]
5 139.999893 -0.000030 -0.000119 -2.038198 -2.167166 4.711811 139.999893
6 139.999893 -0.000030 -0.000119 -19.784266 10.732462 27.584534 139.999893
[Rope2_Seg07]
5 139.999893 0.000060 -0.000060 -1.025057 -1.364311 2.709810 139.999893
6 139.999893 0.000060 -0.000060 -6.672311 1.335563 11.651574 139.999893
[Rope2_Seg09]
5 121.338966 0.000089 -0.000060 24.192430 -1.481319 -0.609169 121.338966
6 121.338966 0.000089 -0.000060 21.290541 -1.508433 -0.533495 121.338966
[R_mid_hand01]
5 104.680779 11.144459 -10.335981 -46.082321 12.877347 14.838715 105.778534
6 104.680779 11.144459 -10.335981 -46.549904 10.526599 12.549552 105.778534
[R_mid_hand02]
5 104.070427 2.443552 8.231699 75.089874 -15.395894 4.580637 104.424065
6 104.070427 2.443552 8.231699 75.293053 -12.253087 3.724458 104.424065
[R_mid_hand03]
5 106.028137 -11.221827 -5.996406 -165.364716 6.053411 -19.285210 106.788818
6 106.028137 -11.221827 -5.996406 -165.053177 5.226180 -16.129606 106.788818
[spine02]
5 129.756927 0.001550 0.000119 -0.063933 -4.204920 -6.983383 129.756927
6 129.756927 0.001550 0.000119 -0.071830 -4.229855 -6.862494 129.756927
[spine03]
5 79.050201 0.011444 -0.638480 1.998833 -2.295640 22.655130 79.052773
6 79.033844 0.014286 -0.798103 2.010115 -2.044056 21.861702 79.037872
[pelvis]
5 169.435242 0.051022 0.000000 0.006340 2.820482 -4.030976 169.435257
6 169.435242 0.051022 0.000000 0.006451 2.733782 -3.946749 169.435257
[null_rope03_connect]
5 -1.257226 -2.466202 137.391083 -131.149429 -89.134079 -153.521225 137.418976
6 -1.257226 -2.466202 137.391083 155.271393 -89.259811 -79.154564 137.418976
[null_rope04_connect]
5 -1.259640 -2.480268 -137.844437 -131.149429 -89.134079 -153.521225 137.872513
6 -1.259640 -2.480268 -137.844437 155.271393 -89.259811 -79.154564 137.872513
[Rope3_Seg01]
5 0.000010 0.000034 -0.000136 -122.417618 12.373885 -47.419952 0.000140
6 0.000010 0.000033 -0.000131 -116.265434 17.897913 -39.748604 0.000136
[Rope3_Seg02]
5 139.999924 -0.000119 0.000060 -1.069825 9.627267 5.979694 139.999924
6 139.999924 -0.000119 0.000060 -2.117800 12.629604 6.195594 139.999924
[Rope3_Seg03]
5 139.999924 -0.000119 0.000119 0.040461 8.215589 6.756893 139.999924
6 139.999924 -0.000119 0.000119 0.171993 5.735951 6.758660 139.999924
[Rope3_Seg04]
5 139.999924 0.000119 0.000000 0.266087 7.420661 4.381329 139.999924
6 139.999924 0.000119 0.000000 -0.333079 10.265160 1.968025 139.999924
[Rope3_Seg05]
5 139.999924 -0.000238 0.000060 0.437617 4.598518 -1.470674 139.999924
6 139.999924 -0.000238 0.000060 0.337836 11.891528 -2.215816 139.999924
[Rope3_Seg06]
5 139.999893 -0.000119 -0.000060 0.636984 2.499086 -0.810589 139.999893
6 139.999893 -0.000119 -0.000060 0.907623 5.747676 -0.794636 139.999893
[Rope3_Seg07]
5 139.999771 0.000060 -0.000119 0.671371 1.748738 -0.195841 139.999771
6 139.999771 0.000060 -0.000119 0.924902 3.502093 -0.390659 139.999771
[Rope3_Seg08]
5 139.999985 -0.000060 0.000000 0.648287 1.090511 -0.135606 139.999985
6 139.999985 -0.000060 0.000000 0.837457 2.140393 -0.274547 139.999985
[Rope3_Seg09]
5 90.185997 -0.000179 -0.000060 85.187569 -1.362241 -0.847030 90.185997
6 90.185997 -0.000179 -0.000060 83.042641 -1.361884 -0.846883 90.185997
[R_rear_hand01]
5 103.366196 -6.073594 -10.757982 -158.297913 12.016421 -17.020952 104.101845
6 103.366196 -6.073594 -10.757982 -157.867935 11.177892 -14.883761 104.101845
[R_rear_hand02]
5 100.509819 12.039542 -7.992327 -37.294647 11.381804 17.542919 101.543350
6 100.509819 12.039542 -7.992327 -37.629494 10.004351 15.720333 101.543350
[R_rear_hand03]
5 101.539970 5.215704 5.435467 84.038773 -17.535099 5.668218 101.819031
6 101.539970 5.215704 5.435467 84.102951 -15.291425 5.424285 101.819031
[Rope4_Seg01]
5 -0.000003 0.000055 -0.000085 31.078642 18.260941 -141.997879 0.000101
6 -0.000004 0.000050 -0.000087 20.888678 20.857973 -154.351852 0.000100
[Rope4_Seg02]
5 139.999985 0.000060 0.000119 6.924654 6.211951 20.160236 139.999985
6 139.999985 0.000060 0.000119 10.042350 6.632580 22.621773 139.999985
[Rope4_Seg03]
5 139.999924 0.000000 -0.000238 2.176012 7.637320 14.242147 139.999924
6 139.999924 0.000000 -0.000238 3.653552 9.158954 17.208673 139.999924
[Rope4_Seg04]
5 139.999985 0.000000 0.000119 0.059343 4.991929 9.847816 139.999985
6 139.999985 0.000000 0.000119 0.436630 6.219684 11.904183 139.999985
[Rope4_Seg05]
5 139.999802 -0.000060 -0.000119 -1.743077 0.407001 10.933481 139.999802
6 139.999802 -0.000060 -0.000119 -1.697878 3.538420 13.131629 139.999802
[Rope4_Seg06]
5 139.999924 0.000000 0.000060 -2.292307 -1.152079 9.032450 139.999924
6 139.999924 0.000000 0.000060 -2.720696 1.929859 10.261108 139.999924
[Rope4_Seg07]
5 139.999802 0.000000 0.000000 -1.366114 -0.248461 5.179947 139.999802
6 139.999802 0.000000 0.000000 -1.999532 1.145136 5.915410 139.999802
[Rope4_Seg08]
5 139.999924 0.000000 0.000119 -2.473127 -0.206757 3.182404 139.999924
6 139.999924 0.000000 0.000119 -2.984387 0.566073 3.613986 139.999924
[Rope4_Seg09]
5 90.185791 0.000060 0.000060 -131.649567 2.229471 0.850908 90.185791
6 90.185791 0.000060 0.000060 -129.761139 2.227465 0.849609 90.185791
[L_rear_hand01]
5 101.696655 -8.392275 -7.654577 -37.552059 -10.344343 163.829926 102.329041
6 101.696655 -8.392275 -7.654577 -37.887218 -8.801578 165.853882 102.329041
[L_rear_hand02]
5 102.726799 -1.568258 5.773216 84.085251 15.843747 174.516418 102.900848
6 102.726799 -1.568258 5.773216 84.157860 13.331166 174.786453 102.900848
[L_rear_hand03]
5 104.552910 9.721220 -10.420293 -157.970963 -11.384036 -164.588104 105.519653
6 104.552910 9.721220 -10.420293 -157.521103 -10.428424 -166.969803 105.519653
